<svg aria-hidden="true" style="position:absolute;width:0;height:0;overflow:hidden" xmlns="http://www.w3.org/2000/svg">
  <defs>
    <symbol id="icon-cross" viewBox="0 0 32 32">
      <path d="M23.734 10.304l-1.504-1.504-5.963 5.962-5.962-5.962-1.504 1.504 5.962 5.962-5.962 5.963 1.504 1.504 5.962-5.963 5.963 5.963 1.504-1.504-5.963-5.963 5.963-5.962z"></path>
    </symbol>
    <symbol id="icon-menu" viewBox="0 0 32 32">
      <path d="M6.4 11.734v-2.134h19.2v2.134h-19.2zM6.4 17.066h19.2v-2.133h-19.2v2.133zM6.4 22.4h19.2v-2.134h-19.2v2.134z"></path>
    </symbol>
    <symbol id="icon-email-black" viewBox="0 0 32 32">
      <path d="M26.667 5.333h-21.333c-1.467 0-2.652 1.2-2.652 2.667l-0.014 16c0 1.467 1.2 2.667 2.667 2.667h21.333c1.467 0 2.667-1.2 2.667-2.667v-16c0-1.467-1.2-2.667-2.667-2.667zM26.133 11.001l-9.426 5.892c-0.201 0.126-0.446 0.2-0.708 0.2s-0.506-0.075-0.713-0.204l0.006 0.003-9.426-5.892c-0.336-0.201-0.557-0.562-0.557-0.975 0-0.625 0.507-1.132 1.132-1.132 0.233 0 0.449 0.070 0.629 0.19l-0.004-0.003 8.933 5.586 8.933-5.588c0.176-0.118 0.392-0.188 0.624-0.188 0.625 0 1.132 0.507 1.132 1.132 0 0.413-0.221 0.775-0.552 0.972l-0.005 0.003z"></path>
    </symbol>
    <symbol id="icon-phone-black" viewBox="0 0 32 32">
      <path d="M24.882 19.774l-3.268-0.373c-0.090-0.011-0.194-0.018-0.3-0.018-0.707 0-1.347 0.287-1.81 0.75l-2.368 2.368c-3.669-1.894-6.585-4.81-8.427-8.372l-0.051-0.108 2.382-2.377c0.463-0.463 0.75-1.103 0.75-1.81 0-0.106-0.006-0.21-0.019-0.312l0.001 0.012-0.373-3.243c-0.155-1.287-1.24-2.276-2.557-2.276-0.001 0-0.002 0-0.003 0h-2.226c-1.454 0-2.663 1.209-2.574 2.661 0.683 10.987 9.47 19.762 20.444 20.444 1.452 0.089 2.663-1.12 2.663-2.574v-2.226c0-0.004 0-0.008 0-0.012 0-1.308-0.985-2.386-2.253-2.532l-0.012-0.001z"></path>
    </symbol>
    <symbol id="icon-person-black" viewBox="0 0 32 32">
      <path d="M16 16c2.946 0 5.333-2.388 5.333-5.333s-2.388-5.333-5.333-5.333v0c-2.946 0-5.333 2.388-5.333 5.333s2.388 5.333 5.333 5.333v0zM16 18.667c-3.561 0-10.667 1.787-10.667 5.333v1.333c0 0.732 0.599 1.333 1.333 1.333h18.667c0.732 0 1.333-0.601 1.333-1.333v-1.333c0-3.547-7.108-5.333-10.667-5.333z"></path>
    </symbol>
    <symbol id="icon-close" viewBox="0 0 32 32">
      <path d="M32 3.223l-3.223-3.223-12.777 12.777-12.777-12.777-3.223 3.223 12.777 12.777-12.777 12.777 3.223 3.223 12.777-12.777 12.777 12.777 3.223-3.223-12.777-12.777 12.777-12.777z"></path>
    </symbol>
    <symbol id="icon-foster" viewBox="0 0 65 32">
      <path d="M10.016 9.983h-.002c-1.827 0-3.308 1.316-3.308 2.94v.002c0 1.624 1.481 2.94 3.308 2.94h.002c1.827 0 3.308-1.316 3.308-2.94v-.002c0-1.624-1.481-2.94-3.308-2.94zm24.418-.94c-.005-2.255-1.015-4.417-2.81-6.012S27.398.538 24.86.533c-2.538.004-4.972.902-6.767 2.497s-2.806 3.757-2.811 6.013v12.436s19.149-1.895 19.151-12.434v-.002zM0 25.562c.005 1.569.708 3.073 1.956 4.183s2.94 1.735 4.706 1.74c1.765-.005 3.457-.63 4.705-1.739s1.952-2.613 1.957-4.182V16.91S-.001 18.23-.001 25.562zm6.662 1.55c-.345 0-.682-.091-.969-.261s-.511-.413-.643-.696-.167-.595-.099-.896.233-.577.477-.794.555-.364.893-.424c.338-.06.689-.029 1.008.088s.591.316.783.571c.192.255.294.555.294.861.001.204-.044.406-.131.595s-.216.36-.378.505c-.162.145-.355.259-.567.338s-.439.119-.669.119v-.006zm13.466-.854h-1.286v1.328h-.67v-3.25h2.116v.542h-1.446v.839h1.286v.54zm3.218-.223c0 .32-.057.6-.17.842s-.275.427-.487.558c-.21.131-.451.196-.723.196-.269 0-.51-.065-.721-.194s-.375-.314-.491-.554c-.116-.241-.175-.518-.176-.83v-.161c0-.32.057-.601.172-.844.116-.244.279-.431.489-.56.211-.131.452-.196.723-.196s.511.065.721.196c.211.129.374.316.489.56.116.242.174.523.174.841v.145zm-.678-.147c0-.341-.061-.6-.183-.777s-.296-.266-.522-.266c-.225 0-.398.088-.52.263-.122.174-.184.43-.185.768v.158c0 .332.061.589.183.772s.298.275.527.275c.225 0 .397-.088.518-.263.121-.177.182-.434.183-.772v-.158zm2.85.846c0-.126-.045-.223-.134-.29-.089-.068-.25-.14-.482-.214-.232-.076-.416-.15-.551-.223-.369-.199-.554-.468-.554-.806 0-.176.049-.332.147-.469.1-.138.242-.246.426-.324.186-.077.394-.116.625-.116.232 0 .439.042.62.127.182.083.322.202.422.355.101.153.152.327.152.522h-.67c0-.149-.047-.264-.141-.346-.094-.083-.225-.125-.395-.125-.164 0-.291.035-.382.105-.091.068-.136.159-.136.272 0 .106.053.194.158.266.107.071.264.138.471.201.381.115.659.257.833.426s.261.381.261.634c0 .281-.106.502-.319.663-.213.159-.499.239-.859.239-.25 0-.478-.045-.683-.136-.205-.092-.362-.218-.471-.377-.107-.159-.161-.344-.161-.554h.672c0 .359.214.538.643.538.159 0 .284-.032.373-.096.089-.065.134-.156.134-.272zm3.574-1.855h-.995v2.708h-.67v-2.708h-.982v-.542h2.647v.542zm2.339 1.299h-1.286v.871h1.509v.538h-2.178v-3.25h2.174v.542h-1.504v.775h1.286v.525zm1.82.218h-.533v1.19h-.67v-3.25h1.208c.384 0 .68.086.888.257s.313.413.313.725c0 .222-.048.407-.145.556-.095.147-.24.265-.435.353l.703 1.328v.031h-.719l-.609-1.19zm-.534-.542h.54c.168 0 .298-.042.391-.127.092-.086.138-.205.138-.355 0-.153-.044-.274-.132-.362-.086-.088-.219-.132-.4-.132h-.538v.975zm4.058.587v1.145h-.67v-3.25h1.268c.244 0 .458.045.643.134.186.089.329.216.429.382.1.164.15.35.15.56 0 .318-.109.57-.328.754-.217.183-.519.275-.904.275h-.587zm0-.542h.598c.177 0 .312-.042.404-.125.094-.083.141-.202.141-.357 0-.159-.047-.288-.141-.386s-.223-.149-.388-.152h-.614v1.02zm4.237.279h-1.286v.871h1.509v.538h-2.178v-3.25h2.174v.542h-1.504v.775h1.286v.525zm3.107-1.299h-.995v2.708h-.67v-2.708h-.982v-.542h2.647v.542zm2.339 1.299h-1.286v.871h1.509v.538h-2.179v-3.25h2.174v.542h-1.504v.775h1.286v.525zm1.819.218h-.533v1.19h-.67v-3.25h1.208c.384 0 .68.086.888.257s.312.413.312.725c0 .222-.048.407-.145.556-.095.147-.24.265-.435.353l.703 1.328v.031h-.719l-.609-1.19zm-.533-.542h.54c.168 0 .298-.042.391-.127.092-.086.138-.205.138-.355 0-.153-.044-.274-.132-.362-.086-.088-.219-.132-.4-.132h-.538v.975zm3.935.88c0-.126-.045-.223-.134-.29-.089-.068-.25-.14-.482-.214-.232-.076-.416-.15-.551-.223-.369-.199-.554-.468-.554-.806 0-.176.049-.332.147-.469.1-.138.242-.246.426-.324.186-.077.394-.116.625-.116.232 0 .439.042.621.127.181.083.322.202.422.355.101.153.152.327.152.522h-.67c0-.149-.047-.264-.141-.346-.094-.083-.225-.125-.395-.125-.164 0-.291.035-.382.105-.091.068-.136.159-.136.272 0 .106.053.194.158.266.107.071.264.138.471.201.381.115.658.257.833.426s.261.381.261.634c0 .281-.106.502-.319.663-.213.159-.499.239-.859.239-.25 0-.478-.045-.683-.136-.205-.092-.362-.218-.471-.377-.107-.159-.161-.344-.161-.554h.672c0 .359.214.538.643.538.159 0 .283-.032.373-.096.089-.065.134-.156.134-.272z"/>
    </symbol>
    <symbol id="icon-tagline" viewBox="0 0 67 32">
      <path d="M33.724 15.224c-.315-.419-.466-.915-.43-1.414v-2.05c0-.628.142-1.106.428-1.433s.775-.489 1.469-.488c.652 0 1.115.139 1.389.417.299.355.444.789.411 1.226v.482h-1.167v-.488c.004-.16-.007-.319-.034-.478-.017-.108-.076-.208-.167-.284-.12-.081-.271-.121-.423-.111-.16-.01-.318.031-.444.117-.102.084-.169.193-.193.313-.033.167-.049.337-.046.507v2.488c-.018.24.033.48.15.699.058.074.139.132.233.169s.198.05.301.039c.149.011.298-.03.413-.113.095-.082.156-.188.174-.302.027-.165.039-.332.036-.498v-.505h1.167v.461c.033.456-.109.909-.403 1.289-.268.305-.725.457-1.396.457s-1.179-.163-1.466-.501zm4.859.021c-.295-.319-.442-.784-.442-1.4v-2.157c0-.609.147-1.07.442-1.383s.788-.469 1.478-.467c.686 0 1.177.156 1.471.467.295.313.444.774.444 1.383v2.157c0 .609-.15 1.076-.449 1.397s-.788.482-1.466.482c-.679 0-1.181-.163-1.478-.48zm2.022-.518c.106-.2.154-.419.14-.638v-2.641c.014-.215-.034-.43-.138-.626-.059-.075-.142-.135-.238-.172s-.203-.05-.308-.037c-.105-.013-.212 0-.308.037s-.18.096-.24.172c-.106.195-.154.41-.14.626v2.653c-.015.219.033.439.14.638.068.067.152.121.246.158s.196.056.3.056c.103 0 .206-.019.3-.056s.178-.091.246-.158v-.012zm2.775-4.826h1.256l.945 3.979.966-3.979h1.222l.123 5.743h-.904l-.097-3.992-.932 3.992h-.725l-.966-4.006-.089 4.006h-.913l.114-5.743zm5.921 0h1.957c1.127 0 1.691.544 1.691 1.631 0 1.041-.593 1.561-1.78 1.56h-.667v2.553h-1.208l.007-5.743zm1.672 2.455c.119.013.24.004.355-.028s.22-.084.309-.154c.139-.194.2-.422.174-.649.006-.175-.013-.35-.058-.521-.017-.057-.047-.111-.089-.158s-.093-.086-.153-.116c-.168-.069-.353-.101-.539-.092h-.469v1.716h.469zm3.718-2.455h1.297l1.331 5.743h-1.126l-.263-1.324h-1.157l-.271 1.324h-1.143l1.331-5.743zm1.109 3.754-.452-2.411-.452 2.411h.903zm2.595-3.754h.846l1.619 3.276V9.901h1.003v5.743h-.804l-1.628-3.42v3.42h-1.036l.002-5.743zm5.814 3.554-1.346-3.546h1.133l.821 2.277.771-2.277h1.109l-1.329 3.546v2.19h-1.16v-2.19zm-28.62 4.701v.3h-.986v2.334h-.413v-2.334h-.99v-.3h2.389zm3.09 2.634h-.319c-.032.002-.064-.007-.089-.025-.024-.015-.043-.036-.053-.06l-.285-.626h-1.367l-.285.626c-.008.026-.023.05-.044.071-.025.017-.057.026-.089.025h-.319l1.208-2.634h.42l1.222 2.624zm-2-.978h1.14l-.483-1.072c-.036-.081-.066-.164-.089-.248-.017.05-.031.098-.046.14l-.044.11-.478 1.07zm4.083.72c.076.003.151.003.227 0 .065-.006.13-.016.193-.031.059-.013.117-.029.174-.048.053-.019.106-.042.162-.065v-.592h-.483c-.012.001-.024-.001-.035-.005s-.021-.009-.03-.016c-.008-.006-.014-.013-.018-.022s-.006-.017-.006-.026v-.202h.937v1.01c-.077.047-.157.089-.242.125-.086.037-.176.067-.268.09-.099.025-.2.043-.302.054-.117.011-.235.017-.353.017-.208.002-.415-.032-.609-.098-.181-.063-.345-.156-.483-.275-.134-.12-.24-.262-.312-.417-.076-.175-.114-.36-.111-.547-.003-.188.034-.374.109-.551.069-.156.176-.298.312-.417.138-.119.302-.212.483-.273.207-.067.426-.1.647-.098.112 0 .225.008.336.023.098.014.195.036.288.067.084.027.165.062.242.104.074.041.144.087.21.138l-.116.163c-.009.015-.023.027-.039.036s-.036.014-.055.014c-.027-.001-.053-.008-.075-.021-.036-.017-.075-.038-.118-.063-.051-.028-.106-.052-.162-.071-.072-.025-.146-.044-.222-.058-.101-.016-.204-.024-.307-.023-.159-.002-.318.023-.466.073-.134.047-.256.118-.355.209-.1.095-.177.206-.225.328-.108.285-.108.593 0 .878.053.124.135.237.242.332.099.09.219.162.353.209.154.046.316.063.478.052zm3.85-.042h1.319v.3h-1.722v-2.634h.413l-.01 2.334zm2.692.3h-.413v-2.634h.413v2.634zm1.536-2.622c.025.012.046.028.063.048l1.766 1.986c-.002-.031-.002-.063 0-.094v-1.963h.36v2.645h-.208c-.031.002-.062-.003-.089-.015-.025-.013-.047-.03-.065-.05l-1.764-1.984v2.048h-.345v-2.634h.215c.023 0 .046.004.068.012zm5.23-.012v.29h-1.464v.87h1.186v.279h-1.186v.899h1.464v.29h-1.889v-2.628h1.889zM10.782 1.888l18.343 4.497v15.757l-18.343-4.494V1.889zM9.605.545v17.867l20.694 5.074V5.621L9.605.545z"/>
      <path d="M20.696 31.781 0 26.702V8.836l20.696 5.076V31.78z"/>
      <path d="m9.948 1.686 18.104 4.44-7.699 6.649L2.247 8.333l7.702-6.647zM9.605.545 0 8.837l20.696 5.076 9.603-8.292L9.605.545zm12.256 30.231 8.438-7.287-8.438-2.071v9.358z"/>
    </symbol>
    <symbol id="icon-brand" viewBox="0 0 43 32">
      <path d="M3.239 26.373c.166.188.254.424.25.665.008.158-.022.315-.089.46s-.169.275-.298.38c-.322.223-.722.332-1.125.307H0V23.97h1.937c.382-.023.761.076 1.073.28.125.096.224.217.289.354s.095.286.086.435c.011.233-.068.461-.225.645-.15.168-.358.284-.589.329.262.044.499.172.668.36zM.92 25.737h.828c.188.013.375-.037.526-.14.062-.052.111-.116.141-.187s.043-.148.036-.225c.006-.076-.007-.153-.037-.224s-.078-.135-.138-.188c-.156-.106-.349-.156-.542-.142H.92v1.106zm1.435 1.616c.066-.053.119-.119.153-.193s.049-.155.043-.235c.005-.081-.01-.163-.045-.238s-.088-.142-.155-.195c-.162-.11-.361-.164-.562-.152H.921v1.159H1.8c.198.011.394-.041.556-.146zm4.842.832L6.12 26.538h-.405v1.647h-.927V23.97h1.754c.442-.028.879.1 1.221.358.245.229.393.53.417.85s-.078.637-.287.894c-.216.227-.512.378-.837.428l1.147 1.684H7.195zm-1.482-2.222h.758c.526 0 .789-.213.789-.638.005-.087-.009-.174-.042-.255s-.085-.156-.151-.218c-.166-.127-.38-.188-.596-.171h-.767l.009 1.283zm6.547 1.374h-1.847l-.326.848h-.972l1.696-4.168h1.05l1.689 4.168h-.972l-.319-.848zm-.247-.639-.675-1.779-.675 1.779h1.349zm6.587 1.487h-.92l-2.062-2.867v2.867h-.918V23.97h.918l2.062 2.883V23.97h.92v4.215zm5.25-1.009c-.19.318-.48.577-.832.743-.4.185-.845.276-1.293.266H20.09V23.97h1.637c.448-.011.891.078 1.293.259.352.163.642.419.832.735.189.343.288.722.288 1.106s-.099.763-.288 1.106zm-1.053-.101c.263-.28.407-.637.407-1.006s-.144-.726-.407-1.006c-.317-.254-.731-.382-1.152-.358h-.639v2.729h.639c.42.024.834-.105 1.152-.358zM12.838.522s11.873 4.104 11.621 10.043V20.61s-11.864-4.106-11.617-10.045L12.837.522zm22.199 17.737c2.242-1.413 4.836-2.288 7.544-2.545v-3.145c-3.12 1.101-5.766 3.097-7.544 5.69z"/>
      <path d="M33.69 19.206c1.835-3.384 5.017-5.995 8.891-7.296V2.849S25.672 8.695 26.03 17.153v14.302s.753-.262 1.939-.752c0-.457 0-.918.054-1.382.35-3.926 2.389-7.565 5.668-10.115z"/>
      <path d="M32.081 24.52c.089-.992.287-1.973.592-2.928-2.042 2.203-3.278 4.936-3.536 7.815-.025.272-.038.544-.045.824.96-.422 2.078-.949 3.252-1.569-.3-1.362-.388-2.756-.263-4.141zm.673.051c-.113 1.253-.042 2.514.209 3.75 4.62-2.531 9.811-6.442 9.611-11.168v-.412c-3.301.338-6.389 1.659-8.79 3.76-.562 1.302-.909 2.674-1.03 4.069z"/>
    </symbol>
    <symbol id="icon-company" viewBox="0 0 34 32">
      <path d="M5.643 31.315c.012 0 .024.003.035.008s.021.011.03.018l.166.158c-.13.129-.289.232-.468.302-.184.069-.397.109-.62.109-.015 0-.03 0-.045-.001h.002c-.213.004-.425-.03-.622-.101-.182-.066-.338-.163-.47-.286l.001.001c-.128-.121-.231-.268-.301-.432l-.003-.008c-.067-.162-.106-.35-.106-.548v-.018.001-.029c0-.388.168-.737.436-.977l.001-.001c.142-.124.312-.222.498-.287.205-.069.423-.103.642-.101h.04c.199 0 .39.034.568.096l-.012-.004c.165.062.316.149.447.255l-.139.169c-.01.012-.022.022-.035.03h-.001c-.014.008-.031.013-.048.013h-.008c-.023-.001-.043-.007-.062-.018h.001l-.074-.046-.104-.058c-.095-.046-.205-.081-.321-.1l-.007-.001c-.069-.012-.149-.018-.23-.018h-.019.001-.015c-.16 0-.313.028-.455.079l.009-.003c-.14.049-.26.122-.363.214l.001-.001c-.104.098-.183.213-.235.339-.054.128-.085.276-.085.432v.017-.001.019c0 .157.031.307.088.444l-.003-.008c.051.125.13.239.231.338.095.091.213.164.345.21.136.049.281.073.427.072.085.001.17-.004.254-.014.211-.022.4-.106.55-.234l-.001.001c.021-.017.049-.028.078-.029zm4.798-.798v.017c0 .197-.041.384-.116.553l.003-.009c-.074.172-.18.317-.311.435l-.001.001c-.138.123-.302.22-.481.283l-.01.003c-.189.064-.406.101-.632.101s-.443-.037-.646-.105l.014.004c-.188-.067-.351-.165-.489-.288l.001.001c-.133-.12-.24-.267-.313-.432l-.003-.008c-.071-.166-.112-.359-.112-.562s.041-.396.116-.572l-.004.01c.071-.165.178-.315.316-.442.139-.121.305-.215.488-.277.188-.065.406-.103.632-.103s.443.038.646.107l-.014-.004c.184.065.351.162.49.286.137.126.244.274.314.435.077.181.115.373.112.565zm-.436 0v-.024c0-.154-.029-.301-.082-.436l.003.008c-.101-.26-.308-.459-.566-.548l-.007-.002c-.137-.047-.295-.074-.459-.074s-.322.027-.469.077l.01-.003c-.136.049-.254.121-.352.214-.097.092-.174.205-.223.331l-.002.006c-.05.134-.079.289-.079.451s.029.317.082.46l-.003-.009c.101.261.309.46.569.547l.007.002c.296.097.622.097.918 0 .133-.046.253-.119.35-.211.1-.098.175-.213.222-.338.056-.145.082-.298.079-.451zm3.71.473.043.101c.017-.036.031-.069.048-.101.019-.039.037-.072.056-.103l-.002.004 1.061-1.677c.021-.029.04-.047.061-.053s.047-.009.073-.009h.015-.001.314v2.728h-.372v-2.09c-.001-.014-.002-.031-.002-.047s.001-.033.002-.049v.002l-1.069 1.701c-.015.026-.036.047-.062.061h-.001c-.026.014-.057.023-.09.023h-.064c-.033 0-.063-.008-.09-.023h.001c-.026-.014-.047-.035-.061-.061v-.001l-1.099-1.711v2.189h-.359v-2.722h.328c.026 0 .051.003.075.01h-.002c.026.011.046.03.058.053l1.084 1.678c.02.028.038.06.053.094l.001.004zm3.995-.135v1.021h-.414v-2.723h.926c.175-.003.349.018.517.059.134.034.259.091.366.17.089.07.159.16.205.262l.002.004c.05.111.073.23.071.349v.017c0 .246-.117.465-.299.603l-.002.001c-.107.082-.232.143-.368.18-.14.04-.301.064-.468.064h-.035l-.501-.008zm0-.293h.503c.109.002.218-.013.322-.041.089-.026.166-.066.234-.119l-.002.001c.117-.097.191-.241.191-.404v-.007c.001-.009.001-.019.001-.029 0-.07-.015-.136-.043-.195l.001.003c-.035-.074-.084-.136-.144-.185l-.001-.001c-.139-.093-.31-.149-.493-.149-.023 0-.046.001-.069.003h.003-.503v1.122zm5.584 1.318h-.334c-.032 0-.061-.009-.086-.026h.001c-.023-.016-.042-.037-.054-.062v-.001l-.282-.658H21.12l-.293.658c-.026.053-.079.088-.141.088h-.333l1.246-2.728h.432l1.263 2.728zm-2.057-1.013h1.172l-.494-1.11c-.038-.084-.069-.169-.094-.256l-.048.142c-.014.043-.03.084-.046.116l-.49 1.108zm3.852-1.701c.024.011.046.028.062.048l1.818 2.056v-2.117h.372v2.728h-.212c-.029 0-.057-.006-.082-.017h.001c-.026-.013-.048-.03-.066-.05l-1.816-2.054c.001.014.001.03.001.047s-.001.033-.002.049v-.002 2.027h-.372v-2.728h.22c.025 0 .051.005.075.013zm5.313 1.629v1.083h-.415v-1.082l-1.149-1.643h.381c.03 0 .057.009.081.023h-.001c.023.018.042.039.056.062l.718 1.06c.029.046.054.087.075.126s.038.078.053.115l.053-.117c.021-.043.044-.084.071-.124l.709-1.067c.015-.022.033-.041.053-.058.023-.017.051-.027.082-.027h.384l-1.15 1.65zm-16.893-6.219c.181.02.363.036.549.05 2.803-1.09 5.174-2.872 6.818-5.126s2.485-4.878 2.421-7.546l-3.09-2.683c.629 2.84.335 5.775-.848 8.478s-3.208 5.067-5.849 6.827z"/>
      <path d="m12.407 24.451.083.015c2.822-1.755 4.973-4.203 6.176-7.031s1.402-5.904.571-8.83l-4.4-3.822c1.779 3.142 2.496 6.659 2.065 10.141-.43 3.482-1.989 6.786-4.495 9.528zm14.921-9.345c-.747 2.931-2.563 5.574-5.177 7.538-.714.543-1.519 1.053-2.367 1.49l-.092.043c2.129-.543 4.085-1.504 5.718-2.808s2.901-2.917 3.703-4.714l-1.784-1.549z"/>
      <path d="m26.628 14.674-2.54-2.207c-.049 2.517-.872 4.976-2.385 7.122s-3.66 3.902-6.217 5.084h.012c.57 0 1.139-.03 1.705-.088 2.39-.848 4.502-2.197 6.146-3.926s2.771-3.785 3.278-5.985zM12.774 3.17 9.743.534c-2.709.91-5.039 2.509-6.686 4.588S.526 9.664.518 12.188c.01 2.789 1.09 5.495 3.07 7.69 1.979 2.194 4.744 3.754 7.858 4.43 2.779-2.942 4.407-6.578 4.646-10.379s-.924-7.57-3.319-10.758zM33.63 14.268c-.011-3.308-1.528-6.478-4.221-8.818s-6.342-3.658-10.15-3.668h-.028c-1.831 0-3.59.305-5.231.867l.114-.034L32.67 18.737c.605-1.313.958-2.849.96-4.468v-.001z"/>
    </symbol>
    <symbol id="icon-taglinehere" viewBox="0 0 25 32">
      <path d="M10.532 1.806h-.084c-.129-.008-.258-.011-.388-.014h-.28c-.244 0-.494.006-.741.018-.008-.001-.018-.001-.028-.001s-.02 0-.029.001h.001c-2.376.138-4.582.733-6.576 1.696l.104-.045-.266.128v13.626l.623-.212c.546-.188 1.129-.357 1.731-.513 1.488-.398 3.202-.638 4.967-.661h.014v1.79c-.223.001-.439.007-.655.018h-.052c-1.399.079-2.709.289-3.971.619l.139-.031c-1.734.441-3.254 1.05-4.666 1.83l.1-.051V2.529C1.854 1.709 3.45 1.041 5.14.608L5.267.58C6.62.216 8.174.004 9.777-.002h.267c.314.008.622.022.91.044.829.06 1.597.187 2.339.378l-.09-.02v1.762c-.628-.154-1.373-.271-2.134-.326l-.045-.003-.044-.004c-.152-.013-.304-.026-.446-.026zm3.101 1.801c.391.03.796.044 1.205.044 1.689-.007 3.324-.228 4.881-.639l-.135.03c1.734-.442 3.252-1.052 4.665-1.831l-.101.051v17.163c-1.379.819-2.975 1.487-4.664 1.921l-.127.028c-1.353.363-2.908.574-4.511.581h-.115c-1.177 0-2.319-.147-3.409-.425l.095.021V3.276c.265.062.537.118.814.164.455.077.934.133 1.401.167zm8.734.133-.623.209c-.572.193-1.151.365-1.731.518-1.551.415-3.332.657-5.169.663h-.004c-.406 0-.78-.011-1.141-.034l-.497-.033V19.08l.426.037c.395.035.803.052 1.214.052 1.45-.006 2.853-.198 4.189-.553l-.116.026c1.221-.31 2.281-.702 3.285-1.189l-.102.044.266-.128V3.739zM1.684 25.977c-.167-.173-.401-.281-.661-.281-.011 0-.023 0-.034.001h.002-.014c-.139 0-.272.028-.393.078l.007-.003c-.237.095-.42.28-.51.512l-.002.006c-.049.123-.073.254-.071.386v2.335c-.006.164.026.328.092.479.055.12.135.226.234.313.093.078.202.135.32.166.114.031.231.048.349.048.13.001.258-.026.377-.081.351-.156.591-.5.591-.901v-.261H1.36v.222c0 .07-.013.136-.037.198l.001-.004c-.021.052-.051.095-.089.132-.07.054-.159.088-.255.089-.011.001-.023.002-.036.002-.103 0-.194-.05-.25-.127l-.001-.001c-.051-.082-.082-.182-.082-.289 0-.008 0-.016.001-.024v.001-2.177c-.004-.121.022-.24.075-.349.056-.087.153-.143.262-.143.013 0 .025.001.038.002H.986h.012c.107 0 .201.052.26.131l.001.001c.063.082.101.187.101.3v.014-.001.202h.604v-.249c0-.143-.027-.28-.077-.405l.003.007c-.048-.128-.117-.237-.205-.329zm3.626-.026c-.186-.158-.429-.255-.694-.257-.124 0-.248.023-.364.066-.252.09-.451.276-.557.511l-.002.006c-.062.142-.092.297-.089.452v2.239c-.004.158.026.314.089.458.055.121.135.228.236.313.094.086.203.154.322.197.117.043.24.065.364.066.267-.001.51-.1.695-.264l-.001.001c.097-.087.176-.194.23-.313.063-.144.093-.301.089-.458v-2.259c0-.156-.033-.305-.092-.439l.003.007c-.057-.128-.135-.237-.23-.327zm-.285 3.018c.001.01.002.023.002.035 0 .114-.047.216-.123.289-.077.065-.178.105-.287.105s-.21-.04-.288-.105l.001.001c-.076-.073-.123-.175-.123-.289 0-.012.001-.025.002-.037v.002-2.239c-.001-.01-.001-.022-.001-.034 0-.113.047-.216.123-.289.077-.065.178-.105.287-.105s.21.04.288.105l-.001-.001c.076.073.123.175.123.289 0 .012-.001.025-.002.037v-.002 2.24zm5.047 1v-4.24h-.586l-.771 2.244h-.01l-.777-2.244h-.58v4.239h.606V27.39h.011l.593 1.823h.302l.598-1.823h.01v2.578h.606zm3.441-3.942c-.093-.105-.211-.185-.342-.232-.124-.042-.267-.066-.416-.066h-.024.001-.9v4.24h.604v-1.656h.311c.189.009.376-.031.545-.116.139-.078.251-.188.329-.32l.002-.004c.07-.113.117-.238.138-.369.021-.133.033-.287.033-.444v-.04.002c.006-.203-.014-.407-.059-.606-.043-.153-.12-.284-.223-.39zm-.312 1.292c-.003.081-.023.157-.057.224l.001-.003c-.035.065-.089.116-.154.147l-.002.001c-.075.034-.162.054-.254.054-.011 0-.022 0-.033-.001h.002-.276V26.3h.311c.009 0 .019-.001.029-.001.088 0 .172.02.247.055l-.004-.002c.062.036.111.09.141.154l.001.002c.033.074.051.155.053.236v.282c0 .098.006.201 0 .291H13.2zm3.173-1.59h-.495l-.934 4.24h.604l.177-.911h.823l.178.911h.604l-.958-4.24zm-.557 2.752.297-1.537h.011l.295 1.537h-.604zm4.46-.198h-.011l-.912-2.554h-.581v4.24h.604v-2.55h.012l.923 2.549h.568v-4.239h-.604v2.554zm3.691-2.554-.486 1.686h-.012l-.486-1.686h-.639l.83 2.448v1.791h.604v-1.791l.83-2.447h-.64zM0 31.166h.291v.817h.198v-.817h.289v-.167H0v.168zm2.447-.168-.382.985h.21l.081-.224h.392l.084.224h.215l-.391-.985h-.21zm-.03.595.134-.365.134.365h-.268zm2.449.027h.228v.127c-.063.051-.145.082-.234.083h-.014c-.079 0-.149-.037-.195-.094-.046-.065-.073-.147-.073-.234 0-.008 0-.016.001-.023v.001c0-.219.095-.329.283-.329.006-.001.014-.001.021-.001.097 0 .178.067.201.157v.001l.194-.038c-.042-.192-.18-.289-.417-.289h-.013c-.127 0-.244.048-.331.127-.088.087-.143.208-.143.342 0 .013 0 .026.002.038v-.002.023c0 .132.048.254.127.347l-.001-.001c.087.09.209.146.343.146.011 0 .021 0 .032-.001h-.001.016c.155 0 .296-.06.402-.157v-.388h-.426v.166zm2.471-.622h-.199v.985h.689v-.167h-.49v-.817zm2.089 0h-.199v.985h.199v-.985zm2.043.657-.404-.657h-.193v.985h.185v-.643l.396.643h.198v-.985h-.182v.658zm1.846-.106h.49v-.167h-.49v-.215h.527v-.168h-.727v.985h.747v-.167h-.548v-.266zm4.477-.163h-.388v-.388h-.197v.984h.197v-.431h.388v.431h.198v-.985h-.198v.388zm1.857.163h.492v-.167h-.492v-.215h.529v-.168h-.726v.985h.746v-.167h-.548v-.266zm2.519.001c.171-.027.258-.118.258-.274.001-.008.002-.018.002-.028 0-.079-.038-.148-.098-.191h-.001c-.073-.037-.159-.059-.25-.059-.014 0-.027 0-.04.001h.002-.417v.984h.198v-.412h.055c.039 0 .076.008.109.023l-.002-.001c.029.018.053.042.07.072l.215.313h.236l-.12-.192c-.054-.096-.128-.175-.215-.235l-.002-.002zm-.199-.137h-.146v-.247h.156c.012-.001.027-.002.042-.002.057 0 .111.009.163.026l-.004-.001c.026.024.043.058.043.096 0 .042-.02.08-.052.104-.049.016-.106.025-.164.025-.013 0-.026 0-.039-.001h.002zm2.099.136h.49v-.167h-.49v-.215h.529v-.168h-.729v.985h.747v-.167h-.548v-.266z"/>
    </symbol>
    <symbol id="icon-yaco" viewBox="0 0 28 32">
      <path d="m4.085 0 4.771 4.517-8.857-.005v21.915h23.149v-8.379l4.766 4.512V.001H4.084zm18.854 17.517L9.411 4.71h13.528v12.807zm-4.2 5.703H3.663V8.482h1.066v13.74H18.74v.997zM7.224 29.345l-.557 1.147-.557-1.147h-.467l.813 1.529v.891h.422v-.891l.811-1.529h-.465zm.7 2.42.196-.564h.938l.197.564h.439l-.916-2.42H8.4l-.914 2.42h.437zm.664-1.906.351 1.004h-.701l.351-1.004zm2.218.945c-.057.085-.091.19-.091.303v.004c0 .204.072.37.214.497s.336.19.575.19c.239 0 .445-.065.618-.195l.136.161h.468l-.355-.421c.14-.191.209-.435.209-.733h-.351c0 .163-.034.311-.101.444l-.468-.552.165-.12c.1-.068.184-.152.249-.249l.002-.003c.048-.079.076-.174.076-.275v-.013c0-.149-.065-.283-.169-.374h-.001c-.108-.097-.251-.157-.408-.157h-.025.001c-.195 0-.35.056-.465.166s-.173.259-.173.449c0 .078.018.157.054.241.038.083.104.184.197.302-.179.129-.3.24-.36.334zm1.092.536c-.104.084-.237.135-.382.136h-.02c-.104 0-.199-.04-.27-.106-.067-.066-.108-.157-.108-.259v-.014.001c0-.129.067-.245.2-.346l.052-.037.528.624zm-.434-1.073c-.114-.141-.172-.257-.172-.351 0-.081.024-.148.07-.201.044-.049.107-.081.178-.081h.01-.001.009c.067 0 .127.026.173.068.048.045.072.099.072.161v.009c0 .09-.04.171-.103.226l-.052.041-.184.127zm3.94 1.315c.166-.145.261-.347.286-.605h-.419c-.022.173-.075.296-.158.37s-.208.112-.372.112c-.18 0-.318-.069-.412-.206s-.14-.337-.14-.599v-.214c.003-.259.052-.453.15-.587.099-.134.24-.201.422-.201.157 0 .276.039.357.116s.133.202.153.376h.419c-.027-.265-.121-.47-.285-.615s-.378-.218-.645-.218c-.198 0-.373.048-.525.142-.152.097-.271.234-.345.396l-.002.006c-.077.169-.122.367-.122.576v.03-.001.226c.003.223.045.418.125.587s.193.298.339.39c.148.091.318.136.511.136.276 0 .497-.072.663-.216zm2.471-.339c.082-.18.123-.388.123-.625v-.158c0-.216-.047-.421-.131-.605l.004.009c-.077-.171-.199-.31-.35-.406l-.004-.002c-.152-.095-.326-.143-.524-.143s-.372.048-.525.144c-.152.095-.27.233-.354.414-.079.175-.125.38-.125.595v.032-.002.136c.001.232.043.436.126.613.084.178.203.315.356.411.154.095.329.143.525.143.199 0 .374-.048.526-.143.152-.097.27-.234.352-.413zm-.45-1.369c.102.143.152.349.152.618v.126c0 .272-.05.48-.151.622-.099.142-.242.213-.429.213h-.017c-.171 0-.323-.086-.413-.216l-.001-.002c-.104-.145-.155-.351-.155-.617v-.14c.002-.26.054-.462.156-.603.091-.13.24-.215.409-.215h.018-.001c.187 0 .33.072.431.214z"/>
    </symbol>
    <symbol id="icon-linkedin" viewBox="0 0 32 32">
      <path d="M31.992 32H32V20.262c0-5.741-1.237-10.163-7.947-10.163-3.227 0-5.392 1.77-6.277 3.45h-.093v-2.914h-6.365v21.363h6.627V21.42c0-2.786.528-5.48 3.978-5.48 3.398 0 3.448 3.179 3.448 5.658V32h6.621zM.528 10.635h6.635V32H.528V10.635zM3.843 0C1.72 0 0 1.721 0 3.843c0 2.12 1.722 3.878 3.843 3.878 2.12 0 3.842-1.757 3.842-3.878S5.965.002 3.844 0z"/>
    </symbol>
    <symbol id="icon-facebook" viewBox="0 0 32 32">
      <path d="M21.328 5.312h2.923V.224C23.019.081 21.591 0 20.143 0h-.156.008c-4.213 0-7.099 2.65-7.099 7.52V12H8.25v5.688h4.646V32h5.699V17.69h4.459l.707-5.688h-5.168V8.08c0-1.643.443-2.768 2.734-2.768z"/>
    </symbol>
    <symbol id="icon-twitter" viewBox="0 0 36 32">
      <path d="M35.556 4.976c-1.222.548-2.64.952-4.125 1.142l-.076.008c1.511-.907 2.646-2.309 3.193-3.977l.015-.051c-1.331.803-2.879 1.415-4.529 1.748l-.093.016c-1.333-1.421-3.223-2.306-5.319-2.306-4.025 0-7.287 3.263-7.287 7.287v.004c0 .578.048 1.134.169 1.662-6.06-.295-11.422-3.2-15.024-7.623-.627 1.055-.999 2.324-1.003 3.681v.001c0 2.524 1.301 4.763 3.237 6.059-1.212-.033-2.341-.361-3.327-.915l.036.019v.08c.005 3.515 2.486 6.449 5.792 7.152l.048.009c-.556.153-1.195.24-1.854.24h-.061.003c-.466 0-.937-.027-1.38-.124.944 2.887 3.623 5.01 6.811 5.077-2.461 1.94-5.606 3.111-9.025 3.111h-.014.001-.069c-.59 0-1.172-.038-1.743-.11l.068.007c3.14 2.051 6.986 3.271 11.116 3.271h.07-.004c13.413 0 20.747-11.111 20.747-20.743 0-.32-.011-.633-.027-.942 1.443-1.04 2.656-2.293 3.62-3.727l.033-.052z"/>
    </symbol>
    <symbol id="icon-instagram" viewBox="0 0 32 32">
      <path d="M31.968 9.408c-.074-1.701-.349-2.869-.742-3.882-.424-1.111-1.054-2.059-1.85-2.837l-.001-.001c-.78-.792-1.724-1.419-2.778-1.827l-.054-.018C25.524.449 24.362.176 22.661.101 20.949.019 20.405 0 16.059 0c-4.344 0-4.888.019-6.595.094-1.699.074-2.869.349-3.88.742-1.112.424-2.06 1.054-2.839 1.85l-.001.001c-.791.78-1.418 1.724-1.825 2.778l-.018.054C.506 6.538.232 7.7.157 9.401c-.082 1.712-.101 2.256-.101 6.602 0 4.344.019 4.888.094 6.595.075 1.701.35 2.869.744 3.882.426 1.11 1.055 2.057 1.849 2.837l.001.001c.8.813 1.77 1.443 2.832 1.843 1.019.395 2.182.67 3.882.744 1.707.075 2.251.094 6.595.094 4.346 0 4.89-.019 6.595-.094 1.701-.074 2.869-.349 3.882-.742 2.157-.85 3.833-2.526 4.664-4.628l.019-.055c.394-1.019.669-2.182.744-3.882.075-1.707.093-2.251.093-6.595s-.006-4.888-.08-6.595zm-2.88 13.066c-.07 1.563-.333 2.406-.55 2.97-.552 1.399-1.64 2.486-3.004 3.024l-.036.012c-.56.219-1.411.482-2.968.55-1.688.075-2.194.094-6.464.094-4.269 0-4.782-.019-6.464-.094-1.563-.069-2.406-.331-2.97-.55-.721-.269-1.334-.676-1.836-1.192l-.001-.001c-.517-.503-.924-1.117-1.184-1.803L3.6 25.45c-.218-.563-.48-1.413-.549-2.97-.075-1.688-.094-2.195-.094-6.464 0-4.27.019-4.784.094-6.464.069-1.563.331-2.406.549-2.97.269-.722.678-1.337 1.198-1.837l.002-.002c.504-.517 1.119-.923 1.806-1.182l.034-.011c.56-.219 1.411-.48 2.968-.55 1.688-.074 2.195-.093 6.464-.093 4.275 0 4.782.019 6.464.093 1.563.069 2.406.331 2.97.55.693.256 1.325.662 1.837 1.194.531.52.938 1.144 1.195 1.84.218.56.48 1.411.549 2.968.075 1.688.094 2.194.094 6.464 0 4.269-.019 4.768-.094 6.458z"/>
      <path d="M16.059 7.782c-4.539.002-8.218 3.682-8.219 8.221.091 4.471 3.737 8.06 8.221 8.06s8.13-3.589 8.221-8.052v-.009c-.001-4.54-3.681-8.22-8.221-8.221zm0 13.552c-2.945 0-5.332-2.388-5.332-5.333s2.388-5.333 5.333-5.333h.001c2.946 0 5.334 2.388 5.334 5.334s-2.388 5.334-5.334 5.334zM26.525 7.458c0 1.06-.86 1.92-1.92 1.92s-1.92-.86-1.92-1.92.86-1.92 1.92-1.92 1.92.86 1.92 1.92z"/>
    </symbol>
    <symbol id="icon-astronaut" viewBox="0 0 32 32">
      <path fill="#2196f3" style="fill:var(--color1, #2196f3)" d="M31.974 4.524c-.064-.191-.227-.332-.427-.362h-.003l-1.911-.278-.855-1.731c-.179-.365-.777-.365-.956 0l-.855 1.731-1.911.278c-.26.039-.457.26-.457.528 0 .15.062.285.161.382l1.383 1.348-.326 1.903c-.034.2.048.402.212.522.166.12.383.135.562.04l1.709-.899 1.709.899c.072.038.157.061.247.061.295 0 .534-.239.534-.534 0-.031-.003-.062-.008-.092v.003l-.326-1.903 1.383-1.348c.099-.097.161-.233.161-.382 0-.059-.009-.115-.027-.168l.001.004zm-2.463 1.327c-.126.122-.183.299-.153.472l.191 1.114-1-.526c-.072-.039-.158-.062-.249-.062s-.177.023-.252.063l.003-.001-1 .526.191-1.114c.005-.027.008-.059.008-.091 0-.149-.061-.285-.16-.381l-.811-.79 1.119-.162c.174-.025.324-.134.402-.292l.5-1.013.5 1.013c.078.158.228.267.402.292l1.119.162-.809.79zm-3.377 14.671h-1.067v1.067h1.067v-1.067zm0 2.134h-1.067v1.066h1.067v-1.066zm1.066-1.067h-1.067v1.067H27.2v-1.067zm-2.133 0H24v1.067h1.067v-1.067zm-2.667 4.8h-1.067v1.067H22.4v-1.067zm0 2.134h-1.067v1.067H22.4v-1.067zm1.067-1.067H22.4v1.067h1.067v-1.067zm-2.133 0h-1.067v1.067h1.067v-1.067zM16 24.256h-1.066v1.067H16v-1.067zm0 2.133h-1.066v1.067H16v-1.067zm1.067-1.067H16v1.067h1.067v-1.067zm-2.133 0h-1.067v1.067h1.067v-1.067zm-9.067-19.2H4.801v1.066h1.066V6.122zm0 2.134H4.801v1.066h1.066V8.256zm1.066-1.067H5.866v1.067h1.066V7.189zm-2.133 0H3.733v1.067H4.8V7.189z"/>
      <path fill="#212121" style="fill:var(--color3, #212121)" d="M24.715 14.16c-.28-.376-.698-.636-1.179-.703l-.009-.001c-.076-.012-.164-.018-.254-.018-.411 0-.789.139-1.09.373l.004-.003-1.253.96-1.898 1.417-1.358-.541c2.421-1.086 4.113-3.508 4.113-6.32 0-3.823-3.122-6.934-6.961-6.934S7.869 5.5 7.869 9.324c0 1.386.415 2.674 1.12 3.759l-2.768-.024c-.009 0-.016.005-.023.005-.057.003-.11.014-.159.033l.004-.001c-.013.005-.026.007-.038.013-.006.003-.013.003-.019.006l-3.233 1.596s-.001 0-.001.001l-1.893.91c-.024.011-.045.023-.065.036l.001-.001C.313 15.981 0 16.524 0 17.14c0 .297.073.577.201.823l-.005-.01c.22.424.592.742 1.043.885l.013.003c.161.053.345.083.537.083.308 0 .598-.078.851-.216l-.009.005 1.388-.738 2.264-1.169 1.357-.008-5.442 5.415c0 .001-.001.001-.001.001L.858 23.547c-.303.299-.491.714-.491 1.173v.005c.002.919.748 1.664 1.667 1.664h.002c.428 0 .854-.162 1.18-.485l1.314-1.309 1.741-1.3.901.897L4.07 27.28c-.303.299-.491.714-.491 1.173v.004c0 .445.174.864.49 1.179.302.3.717.485 1.176.485h.003c.427 0 .855-.162 1.18-.485l4.488-4.472c.007-.006.016-.009.022-.016l5.166-5.658 3.471.494c.025.004.05.006.075.006.064 0 .127-.016.187-.038.017-.006.032-.015.049-.023.019-.01.039-.015.058-.027l3.213-2.133c.012-.008.018-.021.029-.03.013-.01.029-.014.041-.026l1.271-1.191c.348-.326.564-.787.564-1.3 0-.4-.132-.769-.355-1.066l.003.005zM2.13 17.77c-.098.054-.215.086-.34.086-.078 0-.153-.013-.224-.036l.005.001c-.294-.093-.504-.364-.504-.683 0-.235.114-.444.289-.575l.002-.001 1.314-.632.316.924.133.389-.992.527zm3.497-1.828-1.548.8-.255-.746-.184-.537 2.027-1.001-.04 1.484zm15.1-6.62c0 .918-.219 1.785-.599 2.56l-4.181-1.899c-.044-.575-.342-1.072-.782-1.384l-.006-.004 1.464-4.861c2.377.757 4.104 2.975 4.104 5.588zm-11.789 0c0-3.235 2.644-5.867 5.894-5.867.253 0 .5.022.745.053l-1.432 4.753c-.019 0-.037-.006-.057-.006h-.001c-1.032 0-1.869.835-1.872 1.867.003 1.031.84 1.867 1.872 1.867h.001c.695 0 1.295-.383 1.618-.944l3.863 1.755c-1.075 1.447-2.795 2.39-4.737 2.39-3.25 0-5.894-2.632-5.894-5.867zm5.957.8c0 .441-.362.8-.806.8h-.001c-.443 0-.802-.358-.804-.8 0-.441.361-.8.806-.8s.806.359.806.8zM2.464 25.146c-.11.109-.261.176-.428.176s-.317-.067-.427-.175c-.109-.108-.176-.257-.176-.422s.067-.314.176-.422l.962-.959.852.848-.959.954zm3.214 3.734c-.11.109-.261.176-.428.176s-.317-.067-.427-.175c-.109-.108-.176-.257-.176-.422s.067-.314.176-.422l.963-.959.852.848-.96.955zm3.482-3.469-.001.001-1.765 1.76-.852-.848 1.765-1.757c.04-.04.065-.088.09-.136.007-.014.02-.026.026-.04.016-.041.019-.085.026-.128.003-.025.014-.048.014-.073 0-.035-.013-.07-.02-.105-.006-.032-.006-.064-.019-.096-.025-.053-.055-.098-.092-.138-.01-.012-.014-.026-.025-.038h-.001s0-.001-.001-.002l-1.607-1.6c-.017-.017-.039-.024-.058-.038-.025-.021-.054-.04-.084-.056l-.003-.001c-.026-.012-.058-.023-.09-.031l-.003-.001c-.03-.009-.065-.017-.101-.02h-.025c-.026 0-.051.002-.075.005h.003c-.036.005-.069.009-.104.021s-.064.027-.094.045c-.02.011-.043.015-.061.029l-1.774 1.324-.901-.897 2.399-2.386 4.36 4.289-.928.919zm6.819-7.017c-.016-.002-.03.004-.046.003-.008 0-.017-.001-.027-.001-.031 0-.062.003-.092.008h.003c-.07.011-.132.035-.187.07l.002-.001c-.03.018-.057.037-.083.061-.013.011-.028.016-.04.029l-4.698 5.146-4.328-4.256 2.833-2.818c.096-.097.156-.23.156-.377 0-.295-.239-.534-.534-.534h-.002l-2.219.013.028-1.607 3.104.027c1.264 1.297 3.027 2.101 4.978 2.101h.003c.438 0 .864-.046 1.28-.122.04.032.08.064.129.085l2.41.96.152.758.178.886-3.003-.427zm4.041.178-.313-1.558 1.446-1.08.946 1.257-2.08 1.381zm3.753-2.831-.837.785-.931-1.236.831-.637c.155-.119.351-.168.543-.143.193.027.364.128.48.284.088.117.141.265.141.426 0 .206-.087.391-.226.521z"/>
      <path fill="#212121" style="fill:var(--color3, #212121)" d="m13.602 18.544-2.143-2.134c-.096-.096-.229-.155-.376-.155s-.28.059-.376.155l-2.143 2.133c-.097.097-.156.23-.156.378s.06.281.156.378l2.142 2.134c.096.096.229.156.376.156s.28-.059.376-.156l2.143-2.134c.097-.097.157-.23.157-.378s-.06-.281-.157-.378zm-2.519 1.759-1.387-1.381 1.386-1.381 1.387 1.381-1.387 1.381zm6.081-15.232-.258 1.036c.071.018 1.738.452 1.738 2.149h1.067c0-2.017-1.666-2.965-2.547-3.184zm2.547 4.251h-1.067v1.066h1.067V9.322z"/>
    </symbol>
    <symbol id="icon-diagram" viewBox="0 0 32 32">
      <path fill="#2196f3" style="fill:var(--color1, #2196f3)" d="M14.926 14.965h1.066v4.798h-1.066v-4.798zm4.264 2.132h1.066v2.665H19.19v-2.665zm-8.529 1.599h1.066v1.066h-1.066v-1.066zm-3.198-.533h1.066v1.599H7.463v-1.599z"/>
      <path fill="#212121" style="fill:var(--color3, #212121)" d="M1.599 28.291h25.586c.883 0 1.599-.716 1.599-1.599V24.56c0-.883-.716-1.599-1.599-1.599h-.533V9.667l3.028-2.868c.207.104.452.166.711.166.888 0 1.608-.72 1.608-1.608s-.72-1.608-1.608-1.608c-.888 0-1.608.72-1.608 1.608 0 .247.056.481.155.69l-.004-.01-2.281 2.162v-1.23c0-.883-.716-1.599-1.599-1.599H3.731c-.883 0-1.599.716-1.599 1.599v15.992h-.533C.716 22.961 0 23.677 0 24.56v2.132c0 .883.716 1.599 1.599 1.599zM30.384 4.837c.294 0 .533.239.533.533s-.239.533-.533.533c-.294 0-.533-.239-.533-.533s.239-.533.533-.533zM3.198 6.969c0-.294.239-.533.533-.533h21.323c.294 0 .533.239.533.533v2.239l-1.066 1.013V8.036c0-.295-.239-.534-.534-.534H4.798c-.294 0-.534.239-.534.533v13.327c0 .294.239.533.534.533h19.189c.295 0 .534-.239.534-.533v-9.675l1.066-1.01V22.96H3.198V6.969zm4.798 6.93h-.005c-.883 0-1.599.716-1.599 1.599s.716 1.599 1.599 1.599c.432 0 .824-.172 1.112-.45l1.853.93c.215.107.476.057.636-.122l3.939-4.432 3.872 2.902c.208.155.498.139.686-.039l3.365-3.188v8.131H5.331V8.568h18.123v2.661l-3.771 3.572-3.904-2.927c-.088-.067-.2-.107-.32-.107-.158 0-.3.069-.398.178v.001l-3.993 4.493-1.493-.746c.011-.064.017-.128.02-.193 0-.883-.716-1.599-1.599-1.599zm.533 1.599c0 .294-.239.533-.533.533s-.533-.239-.533-.533c0-.294.239-.533.533-.533s.533.239.533.533zm3.198 8.528h5.33v.533c0 .294-.238.533-.533.533h-4.265c-.294 0-.533-.239-.533-.533v-.533zm-10.66.534c0-.294.238-.533.533-.533h9.062v.533c0 .883.716 1.599 1.599 1.599h4.265c.883 0 1.599-.716 1.599-1.599v-.533h9.062c.294 0 .533.239.533.533v2.132c0 .294-.239.533-.533.533H1.601c-.294 0-.533-.239-.533-.533V24.56z"/>
    </symbol>
    <symbol id="icon-clock" viewBox="0 0 32 32">
      <path fill="#212121" style="fill:var(--color3, #212121)" d="M31.296 15.301C31.295 6.849 24.441-.002 15.988 0S.685 6.855.687 15.308c.002 6.788 4.422 12.543 10.541 14.545l.108.031c.061.019.123.029.187.029.12 0 .238-.032.342-.094.135-.08.236-.207.283-.357l3.865-12.25c1.054-.004 1.906-.859 1.906-1.913 0-1.056-.856-1.913-1.913-1.913-.303 0-.59.071-.845.196l.011-.005-5.106-5.107c-.114-.11-.271-.179-.443-.179-.352 0-.638.286-.638.638 0 .172.068.328.179.443l5.103 5.109c-.121.241-.191.525-.191.826 0 .602.283 1.137.723 1.48l.004.003-3.682 11.673C3.843 25.782.117 17.709 2.797 10.431S13.551-.573 20.829 2.108c7.278 2.681 11.004 10.754 8.323 18.032-1.345 3.581-4.003 6.406-7.374 7.938l-.088.036-.398-1.874c-.063-.291-.318-.506-.624-.506-.164 0-.313.062-.426.163l.001-.001-3.837 3.426c-.132.117-.214.287-.214.477 0 .283.185.524.441.606l.005.001 4.899 1.563c.058.02.126.031.196.031.352 0 .637-.285.637-.637 0-.047-.005-.093-.015-.138l.001.004-.391-1.839c5.528-2.374 9.329-7.772 9.329-14.057v-.034.002zm-15.304-.637c.352 0 .638.286.638.638s-.285.638-.638.638c-.352 0-.638-.286-.638-.638s.286-.638.638-.638zm2.1 14.864 2.184-1.948.603 2.84-2.787-.892z"/>
      <path fill="#2196f3" style="fill:var(--color1, #2196f3)" d="M15.354 3.185V4.46c0 .352.286.638.638.638s.638-.285.638-.638V3.185c0-.352-.285-.638-.638-.638s-.638.285-.638.638zM3.876 14.664c-.352 0-.638.286-.638.638s.285.638.638.638h1.275c.352 0 .638-.286.638-.638s-.285-.638-.638-.638H3.876zm24.232 1.275c.352 0 .638-.286.638-.638s-.285-.638-.638-.638h-1.275c-.352 0-.638.286-.638.638s.285.638.638.638h1.275z"/>
    </symbol>
    <symbol id="icon-antenna" viewBox="0 0 30 32">
      <path fill="#212121" style="fill:var(--color3, #212121)" d="m28.437 19.831-7.577-7.633.841-4.142c.202.081.436.129.68.131H22.41c1.07 0 1.938-.867 1.938-1.938s-.867-1.938-1.938-1.938c-1.07 0-1.938.867-1.938 1.938 0 .233.041.456.116.663l-.004-.013-4.451.544L8.872.144C8.786.056 8.666.001 8.534 0c-.126.001-.246.051-.335.14L6.842 1.49c-.087.087-.14.206-.14.338s.054.252.14.338l.73.74c-1.026 1.851-1.63 4.058-1.63 6.407 0 3.684 1.486 7.022 3.891 9.446l-.001-.001c.039.037.083.066.131.087-.029.147-.046.317-.047.49v5.553H4.172c-1.321.001-2.392 1.072-2.394 2.393v.957c0 .265.215.479.479.479h22.017c.264 0 .478-.214.478-.479v-.957c-.002-1.321-1.072-2.391-2.393-2.393h-5.744v-2.461c.9.189 1.817.285 2.736.287 2.315-.003 4.491-.595 6.387-1.635l-.069.035.734.738c.089.091.21.142.338.144.126-.001.246-.051.335-.14l1.357-1.35c.087-.087.14-.206.14-.338s-.054-.252-.14-.338zM21.713 5.594c.173-.172.412-.279.675-.279.529 0 .957.429.957.957s-.429.957-.957.957h-.003c-.526-.003-.952-.43-.952-.957 0-.265.108-.505.282-.679h-.002zm-1.127 3.144-.537 2.644-1.055-1.061 1.592-1.582zm-.544-.809-1.723 1.713-1.333-1.34 3.056-.373zm2.321 17.917c.793 0 1.436.643 1.436 1.436v.479H2.739v-.479c0-.793.643-1.436 1.436-1.436h18.188zm-6.701-1.915v.958h-4.786v-.958h4.786zm-4.786-.957v-3.638c0-1.161 1.074-2.106 2.393-2.106s2.393.945 2.393 2.106v3.638h-4.786zm5.743-1.522v-2.116c0-1.689-1.503-3.063-3.351-3.063h-.052c-1.214 0-2.28.634-2.884 1.589l-.008.014c-2.118-2.227-3.421-5.247-3.421-8.57 0-2.077.509-4.035 1.408-5.756l-.033.069 16.694 16.79c-1.636.85-3.571 1.348-5.623 1.348-.968 0-1.91-.111-2.814-.321l.084.016zm10.131-.613L7.853 1.831l.677-.675 7.121 7.161c.003 0 .005.006.009.009l11.769 11.838-.679.675z"/>
      <path fill="#2196f3" style="fill:var(--color1, #2196f3)" d="M13.273 18.188h-.006c-.793 0-1.436.643-1.436 1.436s.642 1.435 1.434 1.436h.006c.793 0 1.436-.643 1.436-1.436s-.642-1.435-1.434-1.436zm.335 1.775c-.087.086-.206.14-.338.14-.264 0-.479-.214-.479-.479s.213-.478.477-.479c.263.001.476.215.476.478 0 .133-.054.253-.141.339h.004z"/>
    </symbol>
    <symbol id="icon-smartphone" viewBox="0 0 20 32">
      <path d="M17 0H3C1.346 0 0 1.346 0 3v26c0 1.654 1.346 3 3 3h14c1.654 0 3-1.346 3-3V3c0-1.654-1.346-3-3-3zM3 2h14c.552 0 1 .448 1 1v21H2V3c0-.552.448-1 1-1zm14 28H3c-.552 0-1-.448-1-1v-3h16v3c0 .552-.448 1-1 1z"/>
      <path d="M4.708 27.478c.18.163.293.399.293.66s-.113.497-.292.659l-.001.001c-.186.17-.435.275-.708.275s-.522-.104-.709-.275l.001.001c-.18-.163-.293-.399-.293-.66s.113-.497.292-.659l.001-.001c.186-.17.435-.275.708-.275s.522.104.709.275l-.001-.001z"/>
    </symbol>
    <symbol id="icon-envelope" viewBox="0 0 43 32">
      <path d="M38.667 0H4C1.795 0 0 1.795 0 4v24c0 2.205 1.795 4 4 4h34.667c2.205 0 4-1.795 4-4V4c0-2.205-1.795-4-4-4zm0 2.667c.181 0 .355.037.512.104L21.334 18.238 3.489 2.771c.151-.065.327-.104.512-.104h34.667zm0 26.666H4c-.736 0-1.333-.597-1.333-1.333V5.587l17.792 15.421c.233.203.539.327.875.327s.642-.124.876-.328l-.002.001L40 5.587V28c0 .736-.597 1.333-1.333 1.333z"/>
    </symbol>
  </defs>
</svg>
